# Exported from Wings 3D 1.2.rc3
mtllib map1.mtl
o grid1
#153 vertices, 133 faces
v -2.50000000 0.10000000 -2.50000000
v -2.00000000 0.10000000 -2.50000000
v -1.50000000 0.10000000 -2.50000000
v -1.00000000 0.10000000 -2.50000000
v -0.50000000 0.10000000 -2.50000000
v 0.0000000e+0 0.10000000 -2.50000000
v 0.50000000 0.10000000 -2.50000000
v 1.00000000 0.10000000 -2.50000000
v 1.50000000 0.10000000 -2.50000000
v 2.00000000 0.10000000 -2.50000000
v 2.50000000 0.10000000 -2.50000000
v -2.50000000 0.10000000 -2.00000000
v -2.00000000 0.10000000 -2.00000000
v -1.50000000 0.10000000 -2.00000000
v -1.00000000 0.10000000 -2.00000000
v -0.50000000 0.10000000 -2.00000000
v 0.0000000e+0 0.10000000 -2.00000000
v 0.50000000 0.10000000 -2.00000000
v 1.00000000 0.10000000 -2.00000000
v 1.50000000 0.10000000 -2.00000000
v 2.00000000 0.10000000 -2.00000000
v 2.50000000 0.10000000 -2.00000000
v -2.50000000 0.10000000 -1.50000000
v -2.00000000 0.10000000 -1.50000000
v -1.50000000 0.10000000 -1.50000000
v -1.00000000 0.10000000 -1.50000000
v -0.50000000 0.10000000 -1.50000000
v 0.0000000e+0 0.10000000 -1.50000000
v 0.50000000 0.10000000 -1.50000000
v 1.00000000 0.10000000 -1.50000000
v 1.50000000 0.10000000 -1.50000000
v 2.00000000 0.10000000 -1.50000000
v 2.50000000 0.10000000 -1.50000000
v -2.50000000 0.10000000 -1.00000000
v -2.00000000 0.10000000 -1.00000000
v -1.50000000 0.10000000 -1.00000000
v -1.00000000 0.10000000 -1.00000000
v -0.50000000 0.10000000 -1.00000000
v 0.0000000e+0 0.10000000 -1.00000000
v 0.50000000 0.10000000 -1.00000000
v 1.00000000 0.10000000 -1.00000000
v 1.50000000 0.10000000 -1.00000000
v 2.00000000 0.10000000 -1.00000000
v 2.50000000 0.10000000 -1.00000000
v -2.50000000 0.10000000 -0.50000000
v -2.00000000 0.10000000 -0.50000000
v -1.50000000 0.10000000 -0.50000000
v -1.00000000 0.10000000 -0.50000000
v -0.50000000 0.10000000 -0.50000000
v 0.0000000e+0 0.10000000 -0.50000000
v 0.50000000 0.10000000 -0.50000000
v 1.00000000 0.10000000 -0.50000000
v 1.50000000 0.10000000 -0.50000000
v 2.00000000 0.10000000 -0.50000000
v 2.50000000 0.10000000 -0.50000000
v -2.50000000 0.10000000 0.0000000e+0
v -2.00000000 0.10000000 0.0000000e+0
v -1.50000000 0.10000000 0.0000000e+0
v -1.00000000 0.10000000 0.0000000e+0
v -0.50000000 0.10000000 0.0000000e+0
v 0.0000000e+0 0.10000000 0.0000000e+0
v 0.50000000 0.10000000 0.0000000e+0
v 1.00000000 0.10000000 0.0000000e+0
v 1.50000000 0.10000000 0.0000000e+0
v 2.00000000 0.10000000 0.0000000e+0
v 2.50000000 0.10000000 0.0000000e+0
v -2.50000000 0.10000000 0.50000000
v -2.00000000 0.10000000 0.50000000
v -1.50000000 0.10000000 0.50000000
v -1.00000000 0.10000000 0.50000000
v -0.50000000 0.10000000 0.50000000
v 0.0000000e+0 0.10000000 0.50000000
v 0.50000000 0.10000000 0.50000000
v 1.00000000 0.10000000 0.50000000
v 1.50000000 0.10000000 0.50000000
v 2.00000000 0.10000000 0.50000000
v 2.50000000 0.10000000 0.50000000
v -2.50000000 0.10000000 1.00000000
v -2.00000000 0.10000000 1.00000000
v -1.50000000 0.10000000 1.00000000
v -1.00000000 0.10000000 1.00000000
v -0.50000000 0.10000000 1.00000000
v 0.0000000e+0 0.10000000 1.00000000
v 0.50000000 0.10000000 1.00000000
v 1.00000000 0.10000000 1.00000000
v 1.50000000 0.10000000 1.00000000
v 2.00000000 0.10000000 1.00000000
v 2.50000000 0.10000000 1.00000000
v -2.50000000 0.10000000 1.50000000
v -2.00000000 0.10000000 1.50000000
v -1.50000000 0.10000000 1.50000000
v -1.00000000 3.13111111 1.50000000
v -0.50000000 0.10000000 1.50000000
v 0.0000000e+0 0.10000000 1.50000000
v 0.50000000 0.10000000 1.50000000
v 1.00000000 0.10000000 1.50000000
v 1.50000000 0.10000000 1.50000000
v 2.00000000 0.10000000 1.50000000
v 2.50000000 0.10000000 1.50000000
v -2.50000000 0.10000000 2.00000000
v -2.00000000 0.10000000 2.00000000
v -1.50000000 0.10000000 2.00000000
v -1.00000000 0.10000000 2.00000000
v -0.50000000 0.10000000 2.00000000
v 0.0000000e+0 0.10000000 2.00000000
v 0.50000000 0.10000000 2.00000000
v 1.00000000 0.10000000 2.00000000
v 1.50000000 0.10000000 2.00000000
v 2.00000000 0.10000000 2.00000000
v 2.50000000 0.10000000 2.00000000
v -2.50000000 0.10000000 2.50000000
v -2.00000000 0.10000000 2.50000000
v -1.50000000 0.10000000 2.50000000
v -1.00000000 0.10000000 2.50000000
v -0.50000000 0.10000000 2.50000000
v 0.0000000e+0 0.10000000 2.50000000
v 0.50000000 0.10000000 2.50000000
v 1.00000000 0.10000000 2.50000000
v 1.50000000 0.10000000 2.50000000
v 2.00000000 0.10000000 2.50000000
v 2.50000000 0.10000000 2.50000000
v -2.50000000 -0.10000000 -2.50000000
v 2.50000000 -0.10000000 -2.50000000
v -2.50000000 -0.10000000 2.50000000
v 2.50000000 -0.10000000 2.50000000
v 1.00000000 2.48044444 -0.50000000
v 1.50000000 2.48044444 -0.50000000
v 1.00000000 2.48044444 0.0000000e+0
v 1.50000000 2.48044444 0.0000000e+0
v 2.00000000 2.48044444 0.0000000e+0
v 2.00000000 2.48044444 -0.50000000
v 0.50000000 2.48044444 -0.50000000
v 0.50000000 2.48044444 0.0000000e+0
v 1.00000000 2.48044444 0.50000000
v 1.50000000 2.48044444 0.50000000
v 1.50000000 2.48044444 -1.00000000
v 1.00000000 2.48044444 -1.00000000
v -1.00000000 3.13111111 1.00000000
v -0.50000000 3.13111111 1.00000000
v -1.50000000 3.13111111 1.50000000
v -0.50000000 3.13111111 1.50000000
v -1.50000000 3.13111111 2.00000000
v -1.00000000 3.13111111 2.00000000
v -2.00000000 3.13111111 1.50000000
v -2.00000000 3.13111111 2.00000000
v 0.0000000e+0 3.13111111 1.50000000
v 0.0000000e+0 3.13111111 1.00000000
v -1.50000000 3.13111111 1.00000000
v -0.50000000 3.13111111 0.50000000
v -1.00000000 3.13111111 0.50000000
v -0.50000000 3.13111111 2.00000000
v -1.50000000 3.13111111 2.50000000
v -1.00000000 3.13111111 2.50000000
vn -0.57735027 0.57735027 -0.57735027
vn 0.0000000e+0 0.89442719 -0.44721360
vn 0.0000000e+0 0.89442719 -0.44721360
vn 0.0000000e+0 0.89442719 -0.44721360
vn 0.0000000e+0 0.89442719 -0.44721360
vn 0.0000000e+0 0.89442719 -0.44721360
vn 0.0000000e+0 0.89442719 -0.44721360
vn 0.0000000e+0 0.89442719 -0.44721360
vn 0.0000000e+0 0.89442719 -0.44721360
vn 0.0000000e+0 0.89442719 -0.44721360
vn 0.57735027 0.57735027 -0.57735027
vn -0.44721360 0.89442719 0.0000000e+0
vn 0.0000000e+0 1.00000000 0.0000000e+0
vn 0.0000000e+0 1.00000000 0.0000000e+0
vn 0.0000000e+0 1.00000000 0.0000000e+0
vn 0.0000000e+0 1.00000000 0.0000000e+0
vn 0.0000000e+0 1.00000000 0.0000000e+0
vn 0.0000000e+0 1.00000000 0.0000000e+0
vn 0.0000000e+0 1.00000000 0.0000000e+0
vn 0.0000000e+0 1.00000000 0.0000000e+0
vn 0.0000000e+0 1.00000000 0.0000000e+0
vn 0.44721360 0.89442719 0.0000000e+0
vn -0.44721360 0.89442719 0.0000000e+0
vn 0.0000000e+0 1.00000000 0.0000000e+0
vn 0.0000000e+0 1.00000000 0.0000000e+0
vn 0.0000000e+0 1.00000000 0.0000000e+0
vn 0.0000000e+0 1.00000000 0.0000000e+0
vn 0.0000000e+0 1.00000000 0.0000000e+0
vn 0.0000000e+0 1.00000000 0.0000000e+0
vn 0.0000000e+0 1.00000000 0.0000000e+0
vn 0.0000000e+0 1.00000000 0.0000000e+0
vn 0.0000000e+0 1.00000000 0.0000000e+0
vn 0.44721360 0.89442719 0.0000000e+0
vn -0.44721360 0.89442719 0.0000000e+0
vn 0.0000000e+0 1.00000000 0.0000000e+0
vn 0.0000000e+0 1.00000000 0.0000000e+0
vn 0.0000000e+0 1.00000000 0.0000000e+0
vn 0.0000000e+0 1.00000000 0.0000000e+0
vn 0.0000000e+0 1.00000000 0.0000000e+0
vn 0.0000000e+0 1.00000000 0.0000000e+0
vn -0.30151134 0.90453403 -0.30151134
vn 0.30151134 0.90453403 -0.30151134
vn 0.0000000e+0 1.00000000 0.0000000e+0
vn 0.44721360 0.89442719 0.0000000e+0
vn -0.44721360 0.89442719 0.0000000e+0
vn 0.0000000e+0 1.00000000 0.0000000e+0
vn 0.0000000e+0 1.00000000 0.0000000e+0
vn 0.0000000e+0 1.00000000 0.0000000e+0
vn 0.0000000e+0 1.00000000 0.0000000e+0
vn 0.0000000e+0 1.00000000 0.0000000e+0
vn -0.30151134 0.90453403 -0.30151134
vn -0.57735027 0.57735027 -0.57735027
vn 0.57735027 0.57735027 -0.57735027
vn 0.30151134 0.90453403 -0.30151134
vn 0.44721360 0.89442719 0.0000000e+0
vn -0.44721360 0.89442719 0.0000000e+0
vn 0.0000000e+0 1.00000000 0.0000000e+0
vn 0.0000000e+0 1.00000000 0.0000000e+0
vn 0.0000000e+0 1.00000000 0.0000000e+0
vn 0.0000000e+0 1.00000000 0.0000000e+0
vn 0.0000000e+0 1.00000000 0.0000000e+0
vn -0.30151134 0.90453403 0.30151134
vn -0.57735027 0.57735027 0.57735027
vn 0.57735027 0.57735027 0.57735027
vn 0.30151134 0.90453403 0.30151134
vn 0.44721360 0.89442719 0.0000000e+0
vn -0.44721360 0.89442719 0.0000000e+0
vn 0.0000000e+0 1.00000000 0.0000000e+0
vn 0.0000000e+0 1.00000000 0.0000000e+0
vn -0.30151134 0.90453403 -0.30151134
vn 0.30151134 0.90453403 -0.30151134
vn 0.0000000e+0 1.00000000 0.0000000e+0
vn 0.0000000e+0 1.00000000 0.0000000e+0
vn -0.30151134 0.90453403 0.30151134
vn 0.30151134 0.90453403 0.30151134
vn 0.0000000e+0 1.00000000 0.0000000e+0
vn 0.44721360 0.89442719 0.0000000e+0
vn -0.44721360 0.89442719 0.0000000e+0
vn 0.0000000e+0 1.00000000 0.0000000e+0
vn -0.30151134 0.90453403 -0.30151134
vn -0.57735027 0.57735027 -0.57735027
vn 0.57735027 0.57735027 -0.57735027
vn 0.30151134 0.90453403 -0.30151134
vn 0.0000000e+0 1.00000000 0.0000000e+0
vn 0.0000000e+0 1.00000000 0.0000000e+0
vn 0.0000000e+0 1.00000000 0.0000000e+0
vn 0.0000000e+0 1.00000000 0.0000000e+0
vn 0.44721360 0.89442719 0.0000000e+0
vn -0.44721360 0.89442719 0.0000000e+0
vn -0.30151134 0.90453403 -0.30151134
vn -0.57735027 0.57735027 -0.57735027
vn 0.0000000e+0 1.00000000 0.0000000e+0
vn 0.57735027 0.57735027 0.57735027
vn 0.30151134 0.90453403 0.30151134
vn 0.0000000e+0 1.00000000 0.0000000e+0
vn 0.0000000e+0 1.00000000 0.0000000e+0
vn 0.0000000e+0 1.00000000 0.0000000e+0
vn 0.0000000e+0 1.00000000 0.0000000e+0
vn 0.44721360 0.89442719 0.0000000e+0
vn -0.44721360 0.89442719 0.0000000e+0
vn -0.30151134 0.90453403 0.30151134
vn -0.57735027 0.57735027 0.57735027
vn 0.57735027 0.57735027 0.57735027
vn 0.30151134 0.90453403 0.30151134
vn 0.0000000e+0 1.00000000 0.0000000e+0
vn 0.0000000e+0 1.00000000 0.0000000e+0
vn 0.0000000e+0 1.00000000 0.0000000e+0
vn 0.0000000e+0 1.00000000 0.0000000e+0
vn 0.0000000e+0 1.00000000 0.0000000e+0
vn 0.44721360 0.89442719 0.0000000e+0
vn -0.57735027 0.57735027 0.57735027
vn 0.0000000e+0 0.89442719 0.44721360
vn -0.40824829 0.40824829 0.81649658
vn 0.40824829 0.40824829 0.81649658
vn 0.0000000e+0 0.89442719 0.44721360
vn 0.0000000e+0 0.89442719 0.44721360
vn 0.0000000e+0 0.89442719 0.44721360
vn 0.0000000e+0 0.89442719 0.44721360
vn 0.0000000e+0 0.89442719 0.44721360
vn 0.0000000e+0 0.89442719 0.44721360
vn 0.57735027 0.57735027 0.57735027
vn -0.57735027 -0.57735027 -0.57735027
vn 0.57735027 -0.57735027 -0.57735027
vn -0.57735027 -0.57735027 0.57735027
vn 0.57735027 -0.57735027 0.57735027
vn -0.30151134 0.90453403 -0.30151134
vn 0.30151134 0.90453403 -0.30151134
vn -0.30151134 0.90453403 0.30151134
vn 0.30151134 0.90453403 0.30151134
vn 0.57735027 0.57735027 0.57735027
vn 0.57735027 0.57735027 -0.57735027
vn -0.57735027 0.57735027 -0.57735027
vn -0.57735027 0.57735027 0.57735027
vn -0.57735027 0.57735027 0.57735027
vn 0.57735027 0.57735027 0.57735027
vn 0.57735027 0.57735027 -0.57735027
vn -0.57735027 0.57735027 -0.57735027
vn -0.30151134 0.90453403 -0.30151134
vn 0.30151134 0.90453403 -0.30151134
vn -0.30151134 0.90453403 -0.30151134
vn 0.30151134 0.90453403 0.30151134
vn -0.30151134 0.90453403 0.30151134
vn 0.30151134 0.90453403 0.30151134
vn -0.57735027 0.57735027 -0.57735027
vn -0.57735027 0.57735027 0.57735027
vn 0.57735027 0.57735027 0.57735027
vn 0.57735027 0.57735027 -0.57735027
vn -0.57735027 0.57735027 -0.57735027
vn 0.57735027 0.57735027 -0.57735027
vn -0.57735027 0.57735027 -0.57735027
vn 0.57735027 0.57735027 0.57735027
vn -0.57735027 0.57735027 0.57735027
vn 0.57735027 0.57735027 0.57735027
g grid1_default
usemtl default
s 1
f 1//1 12//12 13//13 2//2
f 1//1 122//122 124//124 111//111 100//100 89//89 78//78 67//67 56//56 45//45 34//34 23//23 12//12
f 2//2 3//3 4//4 5//5 6//6 7//7 8//8 9//9 10//10 11//11 123//123 122//122 1//1
f 2//2 13//13 14//14 3//3
f 3//3 14//14 15//15 4//4
f 4//4 15//15 16//16 5//5
f 5//5 16//16 17//17 6//6
f 6//6 17//17 18//18 7//7
f 7//7 18//18 19//19 8//8
f 8//8 19//19 20//20 9//9
f 9//9 20//20 21//21 10//10
f 10//10 21//21 22//22 11//11
f 12//12 23//23 24//24 13//13
f 13//13 24//24 25//25 14//14
f 14//14 25//25 26//26 15//15
f 15//15 26//26 27//27 16//16
f 16//16 27//27 28//28 17//17
f 17//17 28//28 29//29 18//18
f 18//18 29//29 30//30 19//19
f 19//19 30//30 31//31 20//20
f 20//20 31//31 32//32 21//21
f 21//21 32//32 33//33 22//22
f 22//22 33//33 44//44 55//55 66//66 77//77 88//88 99//99 110//110 121//121 125//125 123//123 11//11
f 23//23 34//34 35//35 24//24
f 24//24 35//35 36//36 25//25
f 25//25 36//36 37//37 26//26
f 26//26 37//37 38//38 27//27
f 27//27 38//38 39//39 28//28
f 28//28 39//39 40//40 29//29
f 29//29 40//40 41//41 30//30
f 30//30 41//41 42//42 31//31
f 31//31 42//42 43//43 32//32
f 32//32 43//43 44//44 33//33
f 34//34 45//45 46//46 35//35
f 35//35 46//46 47//47 36//36
f 36//36 47//47 48//48 37//37
f 37//37 48//48 49//49 38//38
f 38//38 49//49 50//50 39//39
f 39//39 50//50 51//51 40//40
f 40//40 51//51 52//52 41//41
f 41//41 137//137 136//136 42//42
f 42//42 53//53 54//54 43//43
f 42//42 136//136 127//127 53//53
f 43//43 54//54 55//55 44//44
f 45//45 56//56 57//57 46//46
f 46//46 57//57 58//58 47//47
f 47//47 58//58 59//59 48//48
f 48//48 59//59 60//60 49//49
f 49//49 60//60 61//61 50//50
f 50//50 61//61 62//62 51//51
f 51//51 132//132 126//126 52//52
f 52//52 126//126 137//137 41//41
f 53//53 127//127 131//131 54//54
f 54//54 65//65 66//66 55//55
f 54//54 131//131 130//130 65//65
f 56//56 67//67 68//68 57//57
f 57//57 68//68 69//69 58//58
f 58//58 69//69 70//70 59//59
f 59//59 70//70 71//71 60//60
f 60//60 71//71 72//72 61//61
f 61//61 72//72 73//73 62//62
f 62//62 73//73 74//74 63//63
f 62//62 133//133 132//132 51//51
f 63//63 74//74 134//134 128//128
f 63//63 128//128 133//133 62//62
f 64//64 75//75 76//76 65//65
f 64//64 129//129 135//135 75//75
f 65//65 76//76 77//77 66//66
f 65//65 130//130 129//129 64//64
f 67//67 78//78 79//79 68//68
f 68//68 79//79 80//80 69//69
f 69//69 80//80 81//81 70//70
f 70//70 150//150 149//149 71//71
f 71//71 82//82 83//83 72//72
f 71//71 149//149 139//139 82//82
f 72//72 83//83 84//84 73//73
f 73//73 84//84 85//85 74//74
f 74//74 85//85 86//86 75//75
f 75//75 86//86 87//87 76//76
f 75//75 135//135 134//134 74//74
f 76//76 87//87 88//88 77//77
f 78//78 89//89 90//90 79//79
f 79//79 90//90 91//91 80//80
f 80//80 148//148 138//138 81//81
f 81//81 138//138 150//150 70//70
f 82//82 139//139 147//147 83//83
f 83//83 94//94 95//95 84//84
f 83//83 147//147 146//146 94//94
f 84//84 95//95 96//96 85//85
f 85//85 96//96 97//97 86//86
f 86//86 97//97 98//98 87//87
f 87//87 98//98 99//99 88//88
f 89//89 100//100 101//101 90//90
f 90//90 144//144 140//140 91//91
f 91//91 140//140 148//148 80//80
f 92//92 140//140 142//142 143//143
f 92//92 143//143 151//151 141//141
f 93//93 104//104 105//105 94//94
f 93//93 141//141 151//151 104//104
f 94//94 105//105 106//106 95//95
f 94//94 146//146 141//141 93//93
f 95//95 106//106 107//107 96//96
f 96//96 107//107 108//108 97//97
f 97//97 108//108 109//109 98//98
f 98//98 109//109 110//110 99//99
f 100//100 111//111 112//112 101//101
f 101//101 112//112 113//113 102//102
f 101//101 145//145 144//144 90//90
f 102//102 113//113 152//152 142//142
f 102//102 142//142 145//145 101//101
f 103//103 114//114 115//115 104//104
f 103//103 143//143 153//153 114//114
f 104//104 115//115 116//116 105//105
f 104//104 151//151 143//143 103//103
f 105//105 116//116 117//117 106//106
f 106//106 117//117 118//118 107//107
f 107//107 118//118 119//119 108//108
f 108//108 119//119 120//120 109//109
f 109//109 120//120 121//121 110//110
f 111//111 124//124 125//125 121//121 120//120 119//119 118//118 117//117 116//116 115//115 114//114 113//113 112//112
f 114//114 153//153 152//152 113//113
f 123//123 125//125 124//124 122//122
f 126//126 132//132 133//133 128//128
f 127//127 136//136 137//137 126//126
f 128//128 129//129 127//127 126//126
f 128//128 134//134 135//135 129//129
f 129//129 130//130 131//131 127//127
f 138//138 148//148 140//140 92//92
f 139//139 149//149 150//150 138//138
f 140//140 144//144 145//145 142//142
f 141//141 139//139 138//138 92//92
f 141//141 146//146 147//147 139//139
f 142//142 152//152 153//153 143//143
